<!DOCTYPE svg PUBLIC "-//W3C//DTD SVG 20010904//EN" "http://www.w3.org/TR/2001/REC-SVG-20010904/DTD/svg10.dtd">
<svg version="1.0" xmlns="http://www.w3.org/2000/svg" width="760px" height="200px" viewBox="0 0 7600 2000" preserveAspectRatio="xMidYMid meet">
<g id="layer101" fill="#d70001" stroke="none">
<path d="M61 1813 c19 -21 114 -122 210 -224 96 -102 206 -221 244 -265 l70 -79 -52 -49 -52 -48 -31 26 c-29 24 -38 28 -56 25 -4 0 -10 3 -13 9 -3 5 -25 12 -48 16 -41 6 -43 5 -73 -39 l-31 -44 25 -39 c29 -46 69 -80 104 -89 26 -6 26 -1 -4 -108 l-17 -60 -66 0 c-36 0 -81 -6 -98 -14 -32 -13 -33 -15 -33 -76 l0 -62 59 -18 c38 -11 73 -16 98 -12 l39 7 18 -68 c10 -37 20 -73 23 -79 2 -7 -8 -18 -24 -24 -35 -13 -89 -64 -108 -102 -14 -27 -13 -32 16 -73 29 -42 32 -44 67 -38 52 9 103 31 129 56 l22 20 60 -53 c34 -29 61 -54 61 -54 0 0 -11 -22 -25 -49 -17 -34 -25 -66 -25 -102 0 -52 0 -53 38 -65 20 -6 42 -16 49 -21 18 -15 99 71 114 122 12 39 14 41 43 36 17 -3 55 -8 84 -12 l52 -7 0 -44 c0 -24 7 -59 14 -78 l15 -35 74 0 c65 0 75 2 80 19 4 16 11 19 45 14 33 -4 46 -1 76 22 22 17 34 22 31 12 -4 -9 5 -26 20 -41 l26 -26 247 2 246 3 10 33 c5 17 13 32 17 32 15 0 10 84 -6 108 -15 20 -65 29 -65 10 0 -3 -8 -9 -17 -12 -17 -6 -60 -38 -94 -71 -9 -8 -22 -15 -29 -15 -7 0 -10 -3 -7 -6 18 -18 -85 -78 -118 -70 -23 6 -135 126 -135 144 0 26 21 19 57 -19 32 -34 99 -79 117 -79 3 0 2 7 -1 17 -4 9 -2 14 3 10 6 -3 16 3 24 13 8 10 17 17 22 14 4 -3 8 2 8 10 0 10 6 13 17 9 9 -4 14 -2 10 3 -3 6 3 17 14 25 42 29 58 46 51 54 -4 5 1 5 10 2 15 -5 16 -1 12 26 -6 33 -45 77 -68 77 -15 0 -166 164 -166 180 0 5 19 0 43 -10 38 -17 73 -19 154 -8 7 1 19 24 28 52 l15 51 -37 31 c-36 31 -91 54 -130 54 -19 0 -20 7 -20 84 l0 84 36 7 c51 9 91 28 91 42 0 7 3 12 8 11 4 -2 17 4 30 13 l23 16 -18 54 -18 54 -59 3 c-37 2 -73 -3 -99 -13 -22 -9 -43 -12 -46 -8 -4 4 -24 34 -45 66 l-39 58 29 32 c36 40 60 83 67 122 5 26 0 35 -34 63 l-39 34 -45 -22 c-25 -12 -62 -41 -82 -65 l-35 -43 -72 34 c-55 25 -70 37 -67 51 2 10 4 45 4 78 -1 113 -8 125 -80 125 -38 0 -45 -4 -68 -37 -20 -30 -25 -50 -25 -99 l0 -61 -62 -7 c-35 -3 -75 -9 -90 -12 -24 -6 -28 -3 -37 32 -16 60 -66 114 -105 114 -26 0 -39 9 -71 48 -22 26 -91 100 -153 164 -63 64 -121 126 -129 137 -13 19 -24 21 -141 21 l-126 0 35 -37z m970 -717 c148 -45 257 -194 247 -335 l-3 -44 -95 109 c-260 299 -248 284 -219 284 13 0 45 -7 70 -14z m-204 -138 c45 -51 126 -147 182 -213 56 -66 126 -147 154 -180 29 -32 46 -56 39 -51 -8 4 -28 -6 -53 -28 l-41 -35 -29 29 c-16 16 -29 31 -29 34 0 6 -25 39 -52 68 -10 10 -18 23 -18 29 0 5 -4 8 -8 5 -9 -6 -42 29 -42 44 0 6 -4 10 -10 10 -5 0 -10 7 -10 15 0 8 -4 15 -10 15 -5 0 -10 9 -10 20 0 14 -5 18 -16 13 -13 -5 -15 -2 -9 18 6 19 5 22 -6 12 -10 -10 -16 -9 -31 3 -9 9 -34 17 -54 18 -29 1 -41 -5 -57 -27 -21 -27 -21 -28 -3 -58 10 -16 15 -37 12 -46 -4 -10 -2 -14 8 -10 20 8 28 -4 13 -21 -10 -13 -9 -15 4 -10 16 6 49 -22 49 -42 0 -6 5 -10 10 -10 6 0 10 -7 10 -15 0 -8 6 -14 13 -13 6 2 11 -5 10 -15 0 -12 4 -16 13 -13 8 3 14 -1 14 -8 0 -8 7 -17 16 -20 8 -3 12 -10 9 -16 -3 -5 1 -10 9 -10 9 0 16 -6 16 -14 0 -8 6 -17 13 -20 6 -4 -12 -4 -41 -1 -241 21 -389 305 -269 515 25 43 97 120 113 120 6 0 47 -42 91 -92z"/>
<path d="M4035 1257 c-81 -81 -66 -216 37 -333 27 -31 28 -37 48 -260 11 -126 23 -276 27 -334 l8 -105 153 -3 c117 -2 153 0 156 10 11 39 86 369 92 401 6 37 10 29 66 -135 33 -95 67 -197 75 -225 l16 -53 160 0 160 0 -7 52 c-3 29 -9 198 -13 376 l-6 322 -104 0 -104 0 6 -147 c3 -82 7 -197 9 -258 l5 -110 -87 258 -87 257 -101 0 -101 0 -36 93 c-20 51 -37 96 -37 100 0 4 22 7 48 7 55 0 72 12 72 52 0 49 -33 68 -121 68 -57 0 -82 -4 -93 -16 -14 -14 -18 -14 -38 0 -15 11 -46 16 -96 16 -70 0 -76 -2 -107 -33z m172 -102 c24 -17 75 -138 67 -159 -20 -53 -115 -9 -143 67 -31 81 14 135 76 92z m184 -285 l26 0 -38 -162 c-20 -90 -41 -179 -47 -198 l-9 -35 -7 55 c-3 30 -10 120 -15 200 -8 128 -7 146 7 156 13 9 21 9 36 -2 11 -8 32 -14 47 -14z"/>
<path d="M5242 979 c-23 -4 -56 -18 -73 -30 -33 -23 -68 -89 -69 -127 0 -58 53 -130 119 -159 19 -8 79 -26 135 -39 108 -27 126 -36 126 -65 0 -46 -103 -49 -228 -8 -35 12 -65 19 -67 17 -5 -4 14 -130 19 -135 2 -2 39 -10 82 -19 106 -20 256 -20 314 1 101 36 116 77 101 280 -6 79 -11 173 -11 209 l0 66 -111 0 -111 0 7 -121 8 -121 -24 7 c-88 27 -134 51 -137 73 -6 39 16 55 71 49 33 -3 47 -1 44 7 -2 6 -12 34 -21 62 -16 50 -18 52 -63 58 -52 7 -53 7 -111 -5z"/>
<path d="M6716 979 c-181 -26 -270 -196 -204 -389 43 -127 143 -191 299 -191 130 0 219 42 260 122 23 45 35 124 25 163 l-6 26 -190 0 -190 0 0 26 c0 40 18 64 63 85 53 24 102 24 200 0 l79 -19 -6 22 c-3 11 -8 44 -12 72 -3 28 -9 56 -13 62 -7 12 -153 33 -211 31 -19 -1 -61 -5 -94 -10z m174 -373 c0 -40 -36 -76 -76 -76 -41 0 -94 45 -94 79 0 20 6 21 85 21 83 0 85 -1 85 -24z"/>
<path d="M7263 980 c-106 -16 -100 -11 -108 -96 -4 -41 -4 -78 -2 -81 3 -3 28 2 56 12 30 10 72 15 108 13 50 -3 58 -6 61 -24 2 -15 -16 -35 -72 -78 -90 -69 -116 -107 -116 -168 0 -59 32 -106 92 -136 38 -19 63 -23 136 -23 49 0 106 3 126 6 l36 7 0 72 0 72 -70 -4 c-70 -4 -100 6 -100 33 0 6 21 27 48 45 26 18 64 49 85 69 l37 35 0 88 c0 87 0 87 -32 111 -18 13 -48 29 -67 36 -48 16 -155 21 -218 11z"/>
<path d="M5803 956 c7 -19 27 -416 30 -591 l2 -140 114 -3 113 -3 -6 73 c-12 143 -26 425 -26 551 l0 127 -116 0 c-95 0 -115 -3 -111 -14z"/>
<path d="M6174 898 c-20 -40 -56 -108 -80 -150 -24 -43 -44 -82 -44 -88 0 -6 36 -64 80 -130 l80 -120 120 0 c66 0 120 2 120 4 0 2 -41 57 -90 121 -57 74 -89 124 -85 134 6 14 133 232 163 279 l14 22 -121 0 -121 0 -36 -72z"/>
</g>
<g id="layer102" fill="#606060" stroke="none">
<path d="M61 1813 c19 -21 114 -122 210 -224 208 -221 400 -435 414 -459 6 -10 46 -60 90 -111 118 -137 270 -316 327 -384 28 -33 68 -79 89 -102 22 -23 39 -44 39 -47 0 -7 -91 -76 -101 -76 -5 0 -9 6 -9 13 0 8 -16 30 -35 50 -19 20 -35 38 -35 41 0 6 -26 39 -53 68 -9 10 -17 23 -17 29 0 5 -4 8 -8 5 -9 -6 -42 29 -42 44 0 6 -4 10 -10 10 -5 0 -10 7 -10 15 0 8 -4 15 -10 15 -5 0 -10 9 -10 20 0 14 -5 18 -16 13 -13 -5 -15 -2 -9 18 6 19 5 22 -6 12 -10 -10 -16 -9 -31 3 -9 9 -34 17 -54 18 -29 1 -41 -5 -57 -27 -21 -27 -21 -28 -3 -58 10 -16 15 -37 12 -46 -4 -10 -2 -14 8 -10 20 8 28 -4 13 -21 -10 -13 -9 -15 4 -10 16 6 49 -22 49 -42 0 -6 5 -10 10 -10 6 0 10 -7 10 -15 0 -8 6 -14 13 -12 6 1 11 -6 10 -16 0 -12 4 -16 13 -13 8 3 14 -1 14 -8 0 -8 7 -17 16 -20 8 -3 12 -10 9 -16 -3 -5 1 -10 9 -10 9 0 16 -7 16 -15 0 -8 5 -15 10 -15 14 0 88 -80 96 -102 7 -24 23 -23 45 4 11 11 22 18 26 15 3 -4 -4 -15 -16 -26 -12 -10 -19 -25 -16 -34 4 -8 -1 -17 -9 -20 -9 -4 -16 -11 -16 -17 0 -18 44 -80 58 -80 14 0 16 -16 2 -25 -5 -3 -26 10 -46 29 -45 44 -54 45 -54 6 0 -32 39 -74 108 -116 49 -31 86 -30 128 2 21 17 32 21 29 11 -4 -9 5 -26 20 -41 l26 -26 247 2 246 3 10 33 c5 17 13 32 17 32 15 0 10 84 -6 108 -15 20 -65 29 -65 10 0 -3 -8 -9 -17 -12 -17 -6 -60 -38 -94 -71 -9 -8 -22 -15 -29 -15 -7 0 -10 -3 -7 -6 18 -18 -84 -78 -117 -70 -28 7 -144 136 -139 154 8 22 29 13 62 -28 18 -22 50 -49 71 -60 48 -24 51 -25 43 -3 -4 9 -2 14 3 10 6 -3 16 3 24 13 8 10 17 17 22 14 4 -3 8 2 8 10 0 10 6 13 17 9 9 -4 14 -2 10 3 -3 6 3 17 14 25 42 29 58 46 51 54 -4 5 1 5 10 2 15 -5 16 -1 12 26 -6 33 -45 77 -68 77 -7 0 -46 37 -87 83 -40 45 -81 90 -92 100 -12 13 -15 22 -8 31 12 15 -53 88 -72 80 -7 -2 -31 17 -52 43 -22 26 -83 96 -135 157 -52 60 -127 147 -165 192 -39 45 -86 96 -103 114 -18 18 -45 49 -60 69 -58 78 -342 402 -445 507 -59 61 -115 120 -123 132 -14 21 -23 22 -142 22 l-126 0 35 -37z m1237 -1510 c-27 -29 -38 -29 -38 0 0 33 -52 81 -79 72 -30 -9 -27 13 7 42 l27 24 52 -58 52 -57 -21 -23z m102 -42 c-1 -19 -20 -32 -39 -26 -23 7 -28 34 -9 53 9 9 16 8 30 -5 10 -9 18 -19 18 -22z m50 -24 c0 -2 -12 -14 -27 -28 -20 -18 -24 -19 -13 -4 18 24 40 42 40 32z"/>
<path d="M4597 1703 c-4 -3 -7 -123 -7 -265 l0 -258 79 0 c55 0 82 4 90 14 13 15 9 19 -34 41 -19 10 -20 22 -23 190 -1 99 0 190 3 202 3 12 18 25 35 31 63 22 18 52 -79 52 -32 0 -61 -3 -64 -7z"/>
<path d="M7463 1703 c-31 -6 -29 -29 5 -45 l27 -13 3 -203 2 -203 -30 -11 c-20 -7 -30 -16 -28 -27 3 -13 18 -17 81 -19 l77 -3 0 266 0 265 -57 -1 c-32 -1 -68 -4 -80 -6z"/>
<path d="M6625 1606 c-17 -7 -45 -29 -62 -49 -105 -119 -45 -347 100 -382 23 -6 27 -4 27 13 0 11 -7 25 -15 32 -14 11 -15 39 -12 179 2 91 7 178 12 194 9 31 -2 34 -50 13z"/>
<path d="M6707 1600 c3 -11 9 -23 14 -26 5 -3 9 -36 9 -75 0 -55 -3 -69 -15 -69 -8 0 -15 -9 -15 -20 0 -18 7 -20 84 -20 62 0 85 4 89 14 3 7 2 17 -3 22 -5 5 -10 38 -12 74 l-3 65 -54 28 c-67 33 -101 36 -94 7z"/>
<path d="M6925 1608 c-9 -24 -1 -151 10 -155 6 -2 20 19 33 47 15 32 34 56 52 65 18 9 30 24 30 35 0 23 -1 24 -51 9 -30 -9 -42 -9 -54 1 -12 10 -16 10 -20 -2z"/>
<path d="M7070 1601 c0 -11 9 -23 20 -26 21 -7 37 -46 25 -65 -3 -6 -37 -26 -73 -44 -91 -46 -114 -73 -119 -138 -6 -81 33 -131 120 -152 22 -5 27 -3 27 13 0 11 -9 25 -21 31 -14 8 -19 19 -17 38 2 22 16 34 71 63 95 50 119 76 125 137 6 65 -23 116 -82 143 -53 24 -76 24 -76 0z"/>
<path d="M5037 1603 c-12 -12 -7 -22 13 -28 19 -6 20 -15 20 -201 l0 -194 70 0 70 0 0 190 c0 179 1 190 20 200 11 6 20 17 20 25 0 12 -19 15 -103 15 -57 0 -107 -3 -110 -7z"/>
<path d="M5364 1599 c-4 -7 1 -16 10 -21 14 -8 16 -32 16 -180 0 -147 -2 -172 -17 -183 -33 -24 -4 -35 92 -35 96 0 125 11 92 35 -15 11 -17 35 -17 180 0 145 2 169 17 180 9 7 13 17 9 23 -10 16 -192 16 -202 1z"/>
<path d="M5580 1595 c0 -9 7 -18 15 -21 12 -5 15 -24 15 -85 0 -78 0 -79 -25 -79 -18 0 -25 -5 -25 -20 0 -15 7 -20 25 -20 24 0 25 -2 25 -67 0 -47 -5 -72 -16 -84 -28 -31 -8 -39 92 -39 79 0 94 3 94 16 0 8 -7 22 -15 30 -12 12 -15 46 -15 173 0 145 2 159 20 176 11 10 17 22 14 26 -3 5 -50 9 -105 9 -82 0 -99 -3 -99 -15z"/>
<path d="M5840 1595 c0 -9 7 -18 15 -21 23 -9 22 -330 -1 -355 -28 -31 -8 -39 92 -39 79 0 94 3 94 16 0 8 -7 22 -15 30 -12 12 -15 46 -15 173 0 145 2 159 20 176 11 10 17 22 14 26 -3 5 -50 9 -105 9 -82 0 -99 -3 -99 -15z"/>
<path d="M6097 1603 c-4 -3 3 -17 15 -31 21 -22 23 -35 26 -155 l4 -132 18 35 c15 27 19 57 20 131 0 83 3 98 20 114 36 33 25 45 -38 45 -32 0 -62 -3 -65 -7z"/>
<path d="M6294 1513 c-32 -54 -81 -140 -111 -190 -30 -51 -63 -97 -73 -103 -11 -6 -17 -16 -14 -25 5 -12 25 -15 93 -15 l86 1 83 145 c81 143 82 145 82 214 l0 70 -45 0 -44 0 -57 -97z"/>
<path d="M2535 1504 c-48 -18 -109 -75 -137 -129 -14 -25 -23 -67 -26 -112 -5 -78 12 -131 64 -200 l24 -31 -33 -7 c-17 -4 -42 -19 -53 -33 l-22 -27 -44 41 c-24 23 -52 45 -62 51 -17 9 -17 11 2 44 21 38 27 105 13 142 -7 18 -22 27 -58 36 l-48 13 -32 -37 c-18 -21 -32 -40 -31 -44 0 -3 0 -32 -1 -63 l-1 -58 -39 0 c-21 0 -57 -6 -79 -14 l-40 -14 -17 38 c-21 47 -49 74 -96 94 -35 15 -37 14 -72 -15 -23 -19 -37 -39 -37 -54 0 -39 28 -92 66 -123 l36 -30 -34 -71 c-28 -60 -36 -69 -53 -64 -37 11 -112 5 -149 -12 -36 -17 -37 -19 -34 -68 3 -46 6 -53 36 -70 33 -19 108 -26 147 -14 21 7 27 -3 83 -125 2 -3 -15 -23 -38 -44 -22 -21 -43 -48 -46 -61 -4 -12 -9 -21 -13 -18 -4 2 -5 -11 -2 -29 8 -46 62 -91 98 -81 43 10 82 44 104 88 12 23 23 43 24 45 2 2 20 -4 40 -12 21 -9 55 -16 76 -16 l39 0 0 -55 c0 -58 15 -98 46 -127 28 -24 112 -4 125 30 15 39 10 105 -10 145 -19 37 -19 37 1 48 11 6 37 26 58 45 35 32 41 34 62 23 13 -7 28 -19 34 -28 8 -10 34 -16 78 -19 l66 -4 21 47 21 47 -29 37 c-21 25 -46 41 -84 54 l-54 18 0 79 0 78 43 7 c23 3 42 10 42 16 0 5 6 9 14 9 7 0 25 14 39 31 24 29 26 30 54 16 55 -29 157 -48 279 -54 l123 -6 47 -80 c84 -146 181 -223 308 -246 128 -24 206 -8 206 42 -1 12 -25 81 -54 152 l-53 130 49 5 c68 8 88 44 50 90 -15 19 -32 24 -88 29 l-69 6 -27 75 c-15 41 -27 78 -27 83 -1 4 26 7 60 7 33 0 69 5 80 10 27 15 24 56 -6 86 -25 25 -29 26 -136 22 -107 -3 -112 -4 -135 -31 -31 -37 -30 -69 6 -169 17 -45 30 -83 30 -85 0 -2 -34 -3 -76 -1 l-77 3 -105 185 c-155 271 -243 351 -381 349 -25 0 -64 -7 -86 -15z m161 -143 c18 -11 43 -34 57 -53 27 -37 187 -313 187 -324 0 -4 -37 -4 -82 -1 -146 9 -240 56 -299 149 -29 45 -34 61 -34 116 0 61 2 65 37 98 44 40 86 44 134 15z m-546 -520 c14 -10 31 -36 39 -58 13 -36 12 -43 -5 -79 -27 -55 -81 -81 -134 -65 -72 21 -105 93 -73 159 33 68 112 88 173 43z m1204 -77 c21 -52 36 -98 33 -101 -4 -3 -28 5 -54 18 -37 18 -59 41 -95 93 -27 38 -48 73 -48 78 0 4 28 8 63 8 l64 0 37 -96z"/>
<path d="M6418 1392 c-12 -20 -18 -51 -18 -89 0 -47 -4 -64 -20 -78 -36 -33 -25 -45 39 -45 68 0 85 14 50 41 -21 16 -25 28 -29 109 l-5 91 -17 -29z"/>
<path d="M6811 1298 c-20 -47 -44 -72 -78 -82 -14 -5 -23 -15 -23 -27 0 -15 5 -19 18 -15 52 15 95 18 102 6 18 -29 30 4 30 81 0 64 -3 79 -15 79 -9 0 -24 -19 -34 -42z"/>
<path d="M4967 1323 c-4 -3 -7 -37 -7 -75 l0 -68 45 0 c39 0 45 3 45 21 0 11 -7 27 -15 35 -8 8 -19 33 -25 54 -10 37 -27 50 -43 33z"/>
<path d="M5276 1296 c-4 -19 -15 -45 -26 -59 -33 -42 -26 -57 25 -57 l45 0 0 75 c0 67 -2 75 -19 75 -13 0 -21 -10 -25 -34z"/>
<path d="M7176 1306 c-8 -31 -53 -86 -72 -86 -8 0 -14 -10 -14 -24 0 -23 2 -24 32 -15 18 5 48 6 66 3 l33 -6 -3 73 c-2 59 -6 74 -19 77 -11 2 -19 -6 -23 -22z"/>
<path d="M3643 1278 c-11 -13 -23 -34 -26 -48 -6 -22 4 -164 19 -276 6 -53 35 -84 78 -84 52 0 59 16 51 117 -5 56 -4 84 2 78 6 -5 38 -50 73 -98 66 -93 83 -107 124 -107 32 0 61 40 52 73 -6 26 -224 321 -258 350 -30 25 -90 22 -115 -5z"/>
<path d="M4035 1257 c-69 -69 -68 -183 3 -287 64 -94 183 -137 258 -91 26 16 33 17 49 5 22 -17 59 -18 86 -4 29 16 24 59 -21 174 -22 56 -40 105 -40 109 0 4 22 7 48 7 55 0 72 12 72 52 0 49 -33 68 -121 68 -57 0 -82 -4 -93 -16 -14 -14 -18 -14 -38 0 -15 11 -46 16 -96 16 -70 0 -76 -2 -107 -33z m172 -102 c24 -17 75 -138 67 -159 -20 -53 -115 -9 -143 67 -31 81 14 135 76 92z"/>
</g>


</svg>